<svg width="40" height="34" viewBox="0 0 40 34" fill="none" xmlns="http://www.w3.org/2000/svg" xmlns:xlink="http://www.w3.org/1999/xlink">
<path d="M21.676,16.864L6.227,18.964C6.049,18.988 5.883,19.05 5.744,19.144C5.605,19.237 5.498,19.359 5.435,19.496L0.109,31.138C-0.4,32.208 0.972,33.229 2.232,32.714L39.151,17.656C39.406,17.552 39.621,17.391 39.771,17.193C39.921,16.995 40,16.767 40,16.534C40,16.301 39.921,16.073 39.771,15.875C39.621,15.677 39.406,15.517 39.151,15.412L2.232,0.354C0.972,-0.159 -0.4,0.861 0.109,1.931L5.437,13.572C5.5,13.709 5.607,13.831 5.746,13.924C5.885,14.018 6.052,14.08 6.229,14.104L21.678,16.204C21.774,16.216 21.862,16.256 21.925,16.317C21.989,16.377 22.023,16.454 22.023,16.534C22.023,16.614 21.989,16.691 21.925,16.751C21.862,16.812 21.774,16.852 21.678,16.864L21.676,16.864Z" fill="#999999"/>
</svg>
